<?xml version="1.0" standalone="no"?><!DOCTYPE svg PUBLIC "-//W3C//DTD SVG 1.1//EN" "http://www.w3.org/Graphics/SVG/1.1/DTD/svg11.dtd"><svg t="1693799505982" class="icon" viewBox="0 0 1024 1024" version="1.1" xmlns="http://www.w3.org/2000/svg" p-id="5758" xmlns:xlink="http://www.w3.org/1999/xlink" width="200" height="200"><path d="M258 27.2h602.4v743.2H258z" fill="#E0E0E0" p-id="5759"></path><path d="M201.6 27.2c-21.2 0-38 17.2-38 38V780c11.6-6.4 24.4-9.6 38-9.6h56.4V27.2H201.6z" fill="#FFD552" p-id="5760"></path><path d="M887.6 915.6H416.4v-59.2h-152v59.2H197.6c-33.6 0-61.2-27.6-61.2-61.2v-8c0-34 27.6-61.2 61.2-61.2h690v130.4z m-458.8-12.8h446.4v-105.6H197.6c-26.8 0-48.8 22-48.8 48.8v8c0 26.8 22 48.8 48.8 48.8H252V844h176.8v58.8z" fill="#4A555F" p-id="5761"></path><path d="M887.6 892H416.4v-35.6h-152v35.6H205.6c-22.8 0-41.6-18.8-41.6-41.6 0-11.2 4.4-21.6 12.4-29.6s18.4-12.4 29.6-12.4H888V892z m-458.8-12.8h446.4v-58.4H205.6c-7.6 0-15.2 3.2-20.8 8.4-5.6 5.6-8.4 12.8-8.4 20.4 0 16 13.2 29.2 29.2 29.2H252V844h176.8v35.2z" fill="#4A555F" p-id="5762"></path><path d="M148.8 850.4h-12.4V65.2c0-36 29.2-65.2 65.2-65.2h686v797.2H201.6c-14 0-27.2 5.6-37.2 15.6-10 10-15.6 23.2-15.6 37.6zM201.6 12.4c-29.2 0-52.8 23.6-52.8 52.8v746.4c2-2.8 4-5.2 6.4-7.6 12.4-12.4 28.8-19.2 46-19.2h673.6V12.4H201.6zM428.8 1024l-88.4-74.4L252 1024v-180h176.8v180z m-88.4-90.8l76 63.6V856h-152v140.8l76-63.6z" fill="#4A555F" p-id="5763"></path><path d="M340.4 914l-61.2 51.6v-94.4h122.4v94.4z" fill="#71CDE1" p-id="5764"></path><path d="M264.4 779.2H252v-12.4h12.4v12.4z m0-25.2H252v-12.4h12.4v12.4z m0-25.2H252v-12.4h12.4v12.4z m0-24.8H252v-12.4h12.4v12.4z m0-25.2H252v-12.4h12.4v12.4z m0-25.2H252v-12.4h12.4v12.4z m0-24.8H252V616h12.4v12.8z m0-25.2H252v-12.4h12.4v12.4z m0-25.2H252v-12.4h12.4v12.4z m0-25.2H252v-12.4h12.4v12.4z m0-24.8H252V516h12.4v12.4z m0-25.2H252v-12.4h12.4v12.4z m0-25.2H252v-12.4h12.4v12.4z m0-24.8H252v-12.4h12.4v12.4z m0-25.2H252v-12.4h12.4v12.4z m0-25.2H252v-12.4h12.4v12.4z m0-25.2H252v-12.4h12.4v12.4z m0-24.8H252V340h12.4v12.8z m0-25.2H252v-12.4h12.4v12.4z m0-25.2H252v-12.4h12.4v12.4z m0-24.8H252v-12.4h12.4v12.4z m0-25.2H252V240h12.4v12.4z m0-25.2H252v-12.4h12.4v12.4z m0-25.2H252v-12.4h12.4v12.4z m0-24.8H252v-12.4h12.4v12.4z m0-25.2H252v-12.4h12.4V152z m0-25.2H252v-12.4h12.4v12.4z m0-24.8H252v-12.4h12.4v12.4z m0-25.2H252V64h12.4v12.8z m0-25.2H252V39.2h12.4v12.4z m0-25.2H252V14h12.4v12.4z" fill="#4A555F" p-id="5765"></path><path d="M551.6 260l50 100.8 111.2 16.4-80.4 78.4 18.8 111.2-99.6-52.4-99.6 52.4 18.8-111.2-80.4-78.4 111.2-16.4z" fill="#F68F6F" p-id="5766"></path></svg>