<?xml version="1.0" standalone="no"?><!DOCTYPE svg PUBLIC "-//W3C//DTD SVG 1.1//EN" "http://www.w3.org/Graphics/SVG/1.1/DTD/svg11.dtd"><svg t="1693915938643" class="icon" viewBox="0 0 1024 1024" version="1.1" xmlns="http://www.w3.org/2000/svg" p-id="6177" xmlns:xlink="http://www.w3.org/1999/xlink" width="200" height="200"><path d="M220.4 192.8h637.6v106.4H220.4z" fill="#FFD552" p-id="6178"></path><path d="M360.8 96.8l4.8-11.6c2.4-5.6 3.6-12 3.6-18 0-8.8-2.4-17.2-6.4-24.4l-7.6-12.8h537.6c22.8 0 41.6 18.4 41.6 41.6v26l-573.6-0.8zM124.4 96.8L120 85.2c-2.4-5.6-3.6-12-3.6-18 0-8.8 2.4-17.2 6.4-24.4l7.6-12.8C107.6 29.6 92 48 92 70.8v26h32.4z" fill="#F68F6F" p-id="6179"></path><path d="M66.8 113.2h890.4v12.8H66.8zM163.2 99.2c-18 0-32.4-14.4-32.4-32.4s14.4-32.4 32.4-32.4 32.4 14.4 32.4 32.4-14.4 32.4-32.4 32.4z m0-52c-10.8 0-19.6 8.8-19.6 19.6s8.8 19.6 19.6 19.6 19.6-8.8 19.6-19.6-8.8-19.6-19.6-19.6zM241.2 99.2c-18 0-32.4-14.4-32.4-32.4s14.4-32.4 32.4-32.4 32.4 14.4 32.4 32.4c0.4 18-14.4 32.4-32.4 32.4z m0-52c-10.8 0-19.6 8.8-19.6 19.6s8.8 19.6 19.6 19.6 19.6-8.8 19.6-19.6c0.4-10.8-8.4-19.6-19.6-19.6zM319.6 99.2c-18 0-32.4-14.4-32.4-32.4s14.4-32.4 32.4-32.4 32.4 14.4 32.4 32.4-14.4 32.4-32.4 32.4z m0-52c-10.8 0-19.6 8.8-19.6 19.6s8.8 19.6 19.6 19.6 19.6-8.8 19.6-19.6-8.8-19.6-19.6-19.6z" fill="#4A555F" p-id="6180"></path><path d="M892.4 726.8h-60.8l17.2-71.6-163.2 71.6H131.6c-39.2 0-71.2-32-71.2-70.8V70.8c0-12 2.8-23.6 8.4-34 3.2-6 7.2-11.6 12.4-16.4 3.2-3.2 6.4-6 10.4-8.8 4-2.4 8-4.8 12-6.4 8.8-3.2 18.4-5.2 28-5.2h761.2c9.6 0 18.8 2 27.6 5.6 4 1.6 8 4 12 6.4 4 2.8 7.6 5.6 10.4 8.8 4.8 4.8 9.2 10.4 12.4 16.4 5.6 10.4 8.4 22 8.4 34V656c0 38.8-32 70.8-71.2 70.8z m-44.4-12.8h44.8c32 0 58.4-26 58.4-58.4V70.8c0-9.6-2.4-19.2-7.2-27.6-2.8-4.8-6-9.2-10-13.2-2.4-2.4-5.6-4.8-8.8-7.2-3.2-2-6.4-4-10-5.2-7.2-3.2-14.8-4.8-22.8-4.8H131.6c-8 0-15.6 1.6-22.8 4.8-3.6 1.6-6.8 3.2-10 5.2s-6 4.4-8.4 7.2c-4 4-7.6 8.4-10 13.6-4.4 8.4-7.2 18-7.2 27.6V656c0 32 26 58.4 58.4 58.4h551.6l184.4-81.2-19.6 80.8z" fill="#4A555F" p-id="6181"></path><path d="M573.6 884c-0.8 0-1.6 0-145.2-46v-12L856 638.4l6.8 10.8-284 233.6-5.2 1.2z m-124.8-53.2c44.8 14.4 109.2 34.8 124 39.6l245.6-202-369.6 162.4z" fill="#4A555F" p-id="6182"></path><path d="M580 1024h-12v-146.4l2.4-4.8 284-233.6 8.8 9.2-213.6 242.8L580 1024z m0.8-143.6v113.2l57.6-109.6 0.8-1.2 161.6-183.6-220 181.2z" fill="#4A555F" p-id="6183"></path><path d="M790 926.8l-147.6-33.2-3.2-10.4 214.4-243.2 11.2 5.6-67.6 282.4-7.2-1.2z m-134.4-43.6l130.8 29.6 59.2-245.2-190 215.6z" fill="#4A555F" p-id="6184"></path><path d="M580 1024h-11.2l69.6-139.6 7.2-3.2 42 9.6 3.2 10.4L580 1024z m67.2-129.6l-44 83.6 70.4-77.6-26.4-6z" fill="#4A555F" p-id="6185"></path><path d="M496.8 954.4H484v-12.8h12.8v12.8z m-25.6 0h-12.8v-12.8h12.8v12.8z m-25.2 0h-12.8v-12.8h12.8v12.8z m-25.6 0h-12.8v-12.8h12.8v12.8z m-25.6 0h-12.8v-12.8h12.8v12.8z m-25.6 0h-12.8v-12.8h12.8v12.8z m-25.6 0h-12.8v-12.8h12.8v12.8z m-25.6 0h-12.8v-12.8h12.8v12.8z m-25.6 0h-1.6c-4 0-8-0.4-11.6-0.8l1.2-12.8c3.6 0.4 6.8 0.4 10.4 0.4h1.6v13.2z m-26.8-2.8c-4.4-1.2-8.8-2.4-12.8-4l4.4-12c3.6 1.6 7.6 2.4 11.6 3.6l-3.2 12.4z m-25.2-9.6c-4-2-8-4.4-11.6-7.2l7.2-10.4c3.2 2.4 6.8 4.4 10 6.4l-5.6 11.2z m-22-15.6l-9.6-9.6 9.6-8.4c2.4 3.2 5.2 6 8.4 8.4l-8.4 9.6z m-17.6-20.4c-2.4-3.6-4.8-7.6-6.8-11.6l11.6-5.6c1.6 3.6 3.6 7.2 6 10.4l-10.8 6.8z m-12-24.4c-1.6-4.4-2.8-8.8-3.6-13.2l12.4-2.4c0.8 4 2 7.6 3.2 11.6l-12 4z m-5.6-26.4c-0.4-2.8-0.4-5.6-0.4-8.4v-4.8h12.8v4.8c0 2.4 0 5.2 0.4 7.6l-12.8 0.8z m12.4-26h-12.8v-12.8h12.8v12.8z m0-25.6h-12.8v-12.8h12.8v12.8z m0-25.6h-12.8v-12.8h12.8v12.8z m0-25.6h-12.8v-12.8h12.8v12.8z m0-25.6h-12.8v-12.8h12.8v12.8z m0-25.6h-12.8v-12.8h12.8v12.8z m0-25.6h-12.8v-12.8h12.8v12.8z m0-25.6h-12.8v-12.8h12.8v12.8z m0-25.2h-12.8V612h12.8v12.8z m0-25.6h-12.8v-12.8h12.8v12.8z m0-25.6h-12.8v-12.8h12.8v12.8z m0-25.6h-12.8v-12.8h12.8v12.8z m0-25.6h-12.8v-12.8h12.8v12.8z m0-25.6h-12.8V484h12.8v12.8z m0-25.6h-12.8v-1.2c0-4 0.4-8.4 0.8-12.4l12.8 1.6c-0.4 3.6-0.8 7.2-0.8 10.8v1.2z m2.8-23.6l-12.4-3.2c1.2-4.4 2.4-8.8 4-12.8l12 4.4c-1.6 3.6-2.8 7.6-3.6 11.6z m8.4-22.4l-11.2-6c2-4 4.4-8 7.2-11.6l10.4 7.6c-2.4 3.2-4.4 6.4-6.4 10z m14-19.6l-9.2-8.8c3.2-3.2 6.4-6.4 9.6-9.2l8.4 9.6c-3.2 2.8-6 5.6-8.8 8.4z m18.4-15.2L232 379.6c3.6-2.4 7.6-4.8 12-6.8l5.6 11.6c-3.6 2-7.2 3.6-10.4 6z m21.2-10.4l-4-12c4.4-1.6 8.8-2.8 13.2-3.6l2.4 12.4c-4 0.8-7.6 2-11.6 3.2z m23.6-4.8l-0.8-12.8c2.4 0 5.2-0.4 8-0.4h5.6v12.8h-5.6c-2.8 0.4-4.8 0.4-7.2 0.4z m467.6 0h-8v-12.8h8c1.2 0 2.4 0 3.6-0.4l1.6 12.8c-1.6 0-3.6 0.4-5.2 0.4z m-20.8 0h-12.8v-12.8h12.8v12.8z m-25.6 0h-12.8v-12.8h12.8v12.8z m-25.6 0h-12.8v-12.8h12.8v12.8z m-25.6 0h-12.8v-12.8h12.8v12.8z m-25.6 0h-12.8v-12.8h12.8v12.8z m-25.6 0h-12.8v-12.8h12.8v12.8z m-25.6 0h-12.8v-12.8h12.8v12.8z m-25.6 0h-12.8v-12.8h12.8v12.8z m-25.2 0h-12.8v-12.8h12.8v12.8z m-25.6 0H488v-12.8h12.8v12.8z m-25.6 0h-12.8v-12.8h12.8v12.8z m-25.6 0h-12.8v-12.8h12.8v12.8z m-25.6 0h-12.8v-12.8h12.8v12.8z m-25.6 0h-12.8v-12.8h12.8v12.8z m-25.6 0H360v-12.8h12.8v12.8z m-25.6 0h-12.8v-12.8h12.8v12.8z m-25.2 0h-12.8v-12.8h12.8v12.8z m449.2-5.2l-6-11.2c3.2-1.6 6-4 8-6.4l9.6 8.4c-3.2 4-7.2 6.8-11.6 9.2z m19.6-22l-12-4.4c1.2-3.2 2-6.8 2-10.4h12.8c0 5.2-1.2 10-2.8 14.8z m2.8-27.6h-12.8v-12.8h12.8v12.8z m0-25.6h-12.8v-2.4c0-2.8-0.4-5.6-1.2-8.4l12.4-3.6c1.2 4 1.6 8 1.6 12v2.4z m-18.8-20c-2-2.8-4.8-5.2-7.6-7.2l6.8-10.8c4.4 2.8 8 6 11.2 10l-10.4 8z m-17.2-10.8c-2-0.4-4-0.8-6-0.8h-5.6v-12.8h5.6c2.8 0 5.6 0.4 8.4 0.8l-2.4 12.8z m-24.4-0.8h-12.8v-12.8h12.8v12.8z m-25.2 0h-12.8v-12.8h12.8v12.8z m-25.6 0h-12.8v-12.8h12.8v12.8z m-25.6 0H644v-12.8h12.8v12.8z m-25.6 0h-12.8v-12.8h12.8v12.8z m-25.6 0h-12.8v-12.8h12.8v12.8z m-25.6 0h-12.8v-12.8h12.8v12.8z m-25.6 0h-12.8v-12.8h12.8v12.8z" fill="#4A555F" p-id="6186"></path><path d="M267.6 441.2h232v12.8h-232z" fill="#4A555F" p-id="6187"></path><path d="M267.6 526.8h232v12.8h-232z" fill="#4A555F" p-id="6188"></path><path d="M267.6 612h232v12.8h-232z" fill="#4A555F" p-id="6189"></path><path d="M602.8 460.8h166.4v134.4h-166.4z" fill="#E0E0E0" p-id="6190"></path><path d="M804 624.8h-236v-193.2h236v193.2z m-223.2-12.8h210.4v-167.6h-210.4V612z" fill="#4A555F" p-id="6191"></path><path d="M793.348 433.148l8.052 9.952-223.016 180.34-8.052-9.952z" fill="#4A555F" p-id="6192"></path><path d="M578.408 432.792l222.988 180.34-8.048 9.952-222.988-180.34z" fill="#4A555F" p-id="6193"></path></svg>