<?xml version="1.0" standalone="no"?><!DOCTYPE svg PUBLIC "-//W3C//DTD SVG 1.1//EN" "http://www.w3.org/Graphics/SVG/1.1/DTD/svg11.dtd"><svg t="1693758784230" class="icon" viewBox="0 0 1092 1024" version="1.1" xmlns="http://www.w3.org/2000/svg" p-id="1490" xmlns:xlink="http://www.w3.org/1999/xlink" width="213.28125" height="200"><path d="M68.266667 204.8h955.733333c38.684444 0 68.266667 29.582222 68.266667 68.266667v682.666666c0 38.684444-29.582222 68.266667-68.266667 68.266667H68.266667c-38.684444 0-68.266667-29.582222-68.266667-68.266667V273.066667c0-38.684444 29.582222-68.266667 68.266667-68.266667z" fill="#5070D2" p-id="1491"></path><path d="M223.004444 18.204444h648.533334c38.684444 0 68.266667 29.582222 68.266666 68.266667v443.733333c0 38.684444-29.582222 68.266667-68.266666 68.266667H223.004444c-38.684444 0-68.266667-29.582222-68.266666-68.266667V86.471111c0-38.684444 29.582222-68.266667 68.266666-68.266667z" fill="#7B98F2" opacity=".6" p-id="1492"></path><path d="M869.262222 614.4H223.004444C175.217778 614.4 136.533333 575.715556 136.533333 527.928889V86.471111C136.533333 38.684444 175.217778 0 223.004444 0h648.533334c45.511111 0 84.195556 38.684444 84.195555 86.471111v443.733333c0 45.511111-38.684444 84.195556-86.471111 84.195556zM223.004444 34.133333c-27.306667 0-50.062222 22.755556-50.062222 50.062223v443.733333c0 27.306667 22.755556 50.062222 50.062222 50.062222h648.533334c27.306667 0 50.062222-22.755556 50.062222-50.062222V86.471111c0-27.306667-22.755556-50.062222-50.062222-50.062222H223.004444z" fill="#88AFFC" p-id="1493"></path><path d="M537.031111 327.68c-9.102222 0-15.928889-6.826667-15.928889-15.928889V141.084444c0-9.102222 6.826667-15.928889 15.928889-15.928888s15.928889 6.826667 15.928889 15.928888v170.666667c-2.275556 9.102222-6.826667 15.928889-15.928889 15.928889zM725.902222 232.106667c-9.102222 0-15.928889-6.826667-15.928889-15.928889V141.084444c0-9.102222 6.826667-15.928889 15.928889-15.928888s15.928889 6.826667 15.928889 15.928888v75.093334c-2.275556 9.102222-9.102222 15.928889-15.928889 15.928889zM348.16 252.586667c-9.102222 0-15.928889-6.826667-15.928889-15.928889V141.084444c0-9.102222 6.826667-15.928889 15.928889-15.928888s15.928889 9.102222 15.928889 15.928888v95.573334c0 9.102222-6.826667 15.928889-15.928889 15.928889zM537.031111 498.346667c-9.102222 0-15.928889-6.826667-15.928889-15.928889v-75.093334c0-9.102222 6.826667-15.928889 15.928889-15.928888s15.928889 6.826667 15.928889 15.928888v75.093334c-2.275556 9.102222-6.826667 15.928889-15.928889 15.928889zM725.902222 498.346667c-9.102222 0-15.928889-6.826667-15.928889-15.928889v-170.666667c0-9.102222 6.826667-15.928889 15.928889-15.928889s15.928889 6.826667 15.928889 15.928889v170.666667c-2.275556 9.102222-9.102222 15.928889-15.928889 15.928889zM348.16 498.346667c-9.102222 0-15.928889-6.826667-15.928889-15.928889v-152.462222c0-9.102222 6.826667-15.928889 15.928889-15.928889s15.928889 6.826667 15.928889 15.928889v152.462222c0 9.102222-6.826667 15.928889-15.928889 15.928889z" fill="#FFFFFF" p-id="1494"></path><path d="M537.031111 416.426667c-31.857778 0-56.888889-25.031111-56.888889-56.888889s25.031111-56.888889 56.888889-56.888889 56.888889 25.031111 56.888889 56.888889-25.031111 56.888889-56.888889 56.888889z m0-81.92c-13.653333 0-27.306667 11.377778-27.306667 27.306666s11.377778 27.306667 27.306667 27.306667 27.306667-11.377778 27.306667-27.306667-13.653333-27.306667-27.306667-27.306666zM725.902222 323.128889c-31.857778 0-56.888889-25.031111-56.888889-56.888889s25.031111-56.888889 56.888889-56.888889 56.888889 25.031111 56.888889 56.888889-27.306667 56.888889-56.888889 56.888889z m0-84.195556c-13.653333 0-27.306667 11.377778-27.306666 27.306667s11.377778 27.306667 27.306666 27.306667c13.653333 0 27.306667-11.377778 27.306667-27.306667s-13.653333-27.306667-27.306667-27.306667zM348.16 341.333333c-31.857778 0-56.888889-25.031111-56.888889-56.888889s25.031111-56.888889 56.888889-56.888888 56.888889 25.031111 56.888889 56.888888-25.031111 56.888889-56.888889 56.888889z m0-84.195555c-13.653333 0-27.306667 11.377778-27.306667 27.306666s11.377778 27.306667 27.306667 27.306667c13.653333 0 27.306667-11.377778 27.306667-27.306667s-13.653333-27.306667-27.306667-27.306666z" fill="#FFFFFF" p-id="1495"></path><path d="M300.373333 750.933333h489.244445c15.928889 0 27.306667 13.653333 27.306666 27.306667 0 15.928889-13.653333 27.306667-27.306666 27.306667H300.373333c-15.928889 0-27.306667-13.653333-27.306666-27.306667s13.653333-27.306667 27.306666-27.306667z" fill="#B0C1F3" p-id="1496"></path></svg>