<?xml version="1.0" standalone="no"?><!DOCTYPE svg PUBLIC "-//W3C//DTD SVG 1.1//EN" "http://www.w3.org/Graphics/SVG/1.1/DTD/svg11.dtd"><svg t="1693758763598" class="icon" viewBox="0 0 1024 1024" version="1.1" xmlns="http://www.w3.org/2000/svg" p-id="1337" xmlns:xlink="http://www.w3.org/1999/xlink" width="200" height="200"><path d="M68.266667 192h682.666666c38.4 0 68.266667 29.866667 68.266667 68.266667v477.866666c0 38.4-29.866667 68.266667-68.266667 68.266667h-682.666666c-38.4 0-68.266667-29.866667-68.266667-68.266667V260.266667C0 221.866667 29.866667 192 68.266667 192zM170.666667 955.733333h477.866666c19.2 0 34.133333 14.933333 34.133334 34.133334 0 19.2-14.933333 34.133333-34.133334 34.133333H170.666667c-19.2 0-34.133333-14.933333-34.133334-34.133333 0-19.2 14.933333-34.133333 34.133334-34.133334zM375.466667 806.4h68.266666v149.333333h-68.266666z" fill="#F8993D" p-id="1338"></path><path d="M102.4 614.4c-6.4 0-10.666667-2.133333-14.933333-6.4-8.533333-8.533333-8.533333-21.333333 0-29.866667L153.6 512l-66.133333-66.133333c-8.533333-8.533333-8.533333-21.333333 0-29.866667s21.333333-8.533333 29.866666 0L213.333333 512l-96 96c-4.266667 4.266667-10.666667 6.4-14.933333 6.4zM535.466667 714.666667H298.666667c-12.8 0-21.333333-8.533333-21.333334-21.333334s8.533333-21.333333 21.333334-21.333333h236.8c12.8 0 21.333333 8.533333 21.333333 21.333333s-8.533333 21.333333-21.333333 21.333334z" fill="#FFFFFF" opacity=".717" p-id="1339"></path><path d="M682.666667 17.066667c38.4 0 72.533333 14.933333 98.133333 40.533333C808.533333 85.333333 825.6 128 819.2 170.666667l49.066667 2.133333c38.4 0 72.533333 14.933333 98.133333 40.533333 25.6 25.6 40.533333 59.733333 40.533333 98.133334 0 38.4-14.933333 74.666667-40.533333 100.266666a136.96 136.96 0 0 1-98.133333 40.533334H497.066667c-38.4 0-72.533333-14.933333-98.133334-40.533334s-40.533333-59.733333-40.533333-98.133333c0-38.4 14.933333-74.666667 40.533333-100.266667 25.6-25.6 59.733333-40.533333 98.133334-40.533333h49.066666c-6.4-44.8 10.666667-85.333333 38.4-115.2C610.133333 32 644.266667 17.066667 682.666667 17.066667z" fill="#FAC15B" opacity=".6" p-id="1340"></path><path d="M868.266667 469.333333H497.066667c-40.533333 0-81.066667-17.066667-108.8-44.8-29.866667-29.866667-46.933333-68.266667-46.933334-110.933333s17.066667-81.066667 44.8-110.933333c29.866667-29.866667 68.266667-46.933333 110.933334-46.933334h32c0-42.666667 17.066667-81.066667 44.8-110.933333S642.133333 0 682.666667 0c40.533333 0 81.066667 17.066667 108.8 44.8 29.866667 29.866667 44.8 68.266667 44.8 108.8l32 2.133333c40.533333 0 78.933333 17.066667 108.8 44.8 29.866667 29.866667 44.8 68.266667 44.8 108.8 0 42.666667-17.066667 81.066667-44.8 110.933334-27.733333 32-66.133333 49.066667-108.8 49.066666zM682.666667 34.133333c-32 0-61.866667 12.8-85.333334 36.266667-25.6 25.6-38.4 64-34.133333 102.4l2.133333 19.2h-68.266666c-32 0-61.866667 12.8-85.333334 36.266667s-36.266667 53.333333-36.266666 87.466666c0 32 12.8 61.866667 36.266666 85.333334s53.333333 36.266667 85.333334 36.266666h373.333333c32 0 61.866667-12.8 85.333333-36.266666s36.266667-53.333333 36.266667-87.466667c0-32-12.8-61.866667-36.266667-85.333333S902.4 192 870.4 192l-68.266667-2.133333 2.133334-19.2c4.266667-36.266667-8.533333-74.666667-34.133334-100.266667-25.6-23.466667-55.466667-36.266667-87.466666-36.266667z" fill="#FDD38C" p-id="1341"></path><path d="M597.333333 352c-12.8 0-21.333333-8.533333-21.333333-21.333333V234.666667c0-12.8 8.533333-21.333333 21.333333-21.333334s21.333333 8.533333 21.333334 21.333334v96c0 12.8-8.533333 21.333333-21.333334 21.333333zM768 352c-12.8 0-21.333333-8.533333-21.333333-21.333333V234.666667c0-12.8 8.533333-21.333333 21.333333-21.333334s21.333333 8.533333 21.333333 21.333334v96c0 12.8-8.533333 21.333333-21.333333 21.333333z" fill="#FFFFFF" p-id="1342"></path><path d="M682.666667 384c-12.8 0-21.333333-8.533333-21.333334-21.333333V192c0-12.8 8.533333-21.333333 21.333334-21.333333s21.333333 8.533333 21.333333 21.333333v170.666667c0 12.8-8.533333 21.333333-21.333333 21.333333z" fill="#FFFFFF" p-id="1343"></path></svg>