<?xml version="1.0" standalone="no"?><!DOCTYPE svg PUBLIC "-//W3C//DTD SVG 1.1//EN" "http://www.w3.org/Graphics/SVG/1.1/DTD/svg11.dtd"><svg t="1693758922020" class="icon" viewBox="0 0 1024 1024" version="1.1" xmlns="http://www.w3.org/2000/svg" p-id="6859" xmlns:xlink="http://www.w3.org/1999/xlink" width="200" height="200"><path d="M931 110.6c7.3 0 13.2 5.9 13.2 13.2v776.4c0 7.3-5.9 13.2-13.2 13.2H93.2c-7.3 0-13.2-5.9-13.2-13.2V123.8c0-7.3 5.9-13.2 13.2-13.2H931m0-16H93.2c-16.1 0-29.2 13.1-29.2 29.2v776.4c0 16.1 13.1 29.2 29.2 29.2H931c16.1 0 29.2-13.1 29.2-29.2V123.8c0-16-13.1-29.2-29.2-29.2z" fill="#581166" p-id="6860"></path><path d="M80 306.4v593.8c0 7.3 5.9 13.2 13.2 13.2H931c7.3 0 13.2-5.9 13.2-13.2V306.4H80z" fill="#FF5855" p-id="6861"></path><path d="M931 110.6H93.2c-7.3 0-13.2 5.9-13.2 13.2v182.6h864.2V123.8c0-7.3-5.9-13.2-13.2-13.2z" fill="#FF9292" p-id="6862"></path><path d="M952.2 314.4H72c-4.4 0-8-3.6-8-8s3.6-8 8-8h880.2c4.4 0 8 3.6 8 8s-3.6 8-8 8zM744.1 254.8a20.6 20.6 0 1 0 41.2 0 20.6 20.6 0 1 0-41.2 0zM807.4 254.8a20.6 20.6 0 1 0 41.2 0 20.6 20.6 0 1 0-41.2 0zM870.6 254.8a20.6 20.6 0 1 0 41.2 0 20.6 20.6 0 1 0-41.2 0zM841.5 371.3c20.8 0 37.7 16.9 37.7 37.7v402.3c0 20.8-16.9 37.7-37.7 37.7H182.7c-20.8 0-37.7-16.9-37.7-37.7V409c0-20.8 16.9-37.7 37.7-37.7h658.8m0-16H182.7c-29.5 0-53.7 24.2-53.7 53.7v402.3c0 29.5 24.2 53.7 53.7 53.7h658.8c29.5 0 53.7-24.2 53.7-53.7V409c0-29.5-24.1-53.7-53.7-53.7z" fill="#581166" p-id="6863"></path><path d="M841.5 371.3c20.8 0 37.7 16.9 37.7 37.7v402.3c0 20.8-16.9 37.7-37.7 37.7H182.7c-20.8 0-37.7-16.9-37.7-37.7V409c0-20.8 16.9-37.7 37.7-37.7h658.8" fill="#FFFFFF" p-id="6864"></path><path d="M789.9 493.7H610.7c-4.4 0-8-3.6-8-8s3.6-8 8-8h179.2c4.4 0 8 3.6 8 8s-3.6 8-8 8z m0 59H610.7c-4.4 0-8-3.6-8-8s3.6-8 8-8h179.2c4.4 0 8 3.6 8 8s-3.6 8-8 8z m-66.4 107H610.7c-4.4 0-8-3.6-8-8s3.6-8 8-8h112.8c4.4 0 8 3.6 8 8s-3.6 8-8 8z m0 83H610.7c-4.4 0-8-3.6-8-8s3.6-8 8-8h112.8c4.4 0 8 3.6 8 8s-3.6 8-8 8zM477.5 511.2c14.2 0 25.8 11.6 25.8 25.8v146.5c0 14.2-11.6 25.8-25.8 25.8H268.1c-14.2 0-25.8-11.6-25.8-25.8V536.9c0-14.2 11.6-25.8 25.8-25.8h209.4m0-15.9H268.1c-23 0-41.8 18.8-41.8 41.8v146.5c0 23 18.8 41.8 41.8 41.8h209.4c23 0 41.8-18.8 41.8-41.8V536.9c-0.1-22.9-18.9-41.7-41.8-41.7z" fill="#581166" p-id="6865"></path><path d="M477.5 511.2c14.2 0 25.8 11.6 25.8 25.8v146.5c0 14.2-11.6 25.8-25.8 25.8H268.1c-14.2 0-25.8-11.6-25.8-25.8V536.9c0-14.2 11.6-25.8 25.8-25.8h209.4" fill="#FCEAD2" p-id="6866"></path><path d="M336.8 551.2c2.1 0 4.1 0.4 5.9 1.3l71.2 48.4 0.7 0.5 0.8 0.4c3.6 1.9 5.6 4.9 5.6 8.3 0 3.4-2 6.4-5.6 8.3l-0.8 0.4-0.7 0.5-71.2 48.4c-1.9 0.9-3.9 1.3-5.9 1.3-5.9 0-12.3-4-12.3-10v-98c0-5.8 6.4-9.8 12.3-9.8m0-16c-14.7 0-28.3 10.8-28.3 26v98c0 15.1 13.5 26 28.3 26 4.7 0 9.5-1.1 14.1-3.5l72-49c18.8-10 18.8-34.9 0-44.9l-72-49c-4.6-2.5-9.4-3.6-14.1-3.6z" fill="#581166" p-id="6867"></path><path d="M336.8 551.2c2.1 0 4.1 0.4 5.9 1.3l71.2 48.4 0.7 0.5 0.8 0.4c3.6 1.9 5.6 4.9 5.6 8.3 0 3.4-2 6.4-5.6 8.3l-0.8 0.4-0.7 0.5-71.2 48.4c-1.9 0.9-3.9 1.3-5.9 1.3-5.9 0-12.3-4-12.3-10v-98c0-5.8 6.4-9.8 12.3-9.8" fill="#FF5855" p-id="6868"></path></svg>