<?xml version="1.0" standalone="no"?><!DOCTYPE svg PUBLIC "-//W3C//DTD SVG 1.1//EN" "http://www.w3.org/Graphics/SVG/1.1/DTD/svg11.dtd"><svg t="1693758930543" class="icon" viewBox="0 0 1024 1024" version="1.1" xmlns="http://www.w3.org/2000/svg" p-id="7008" xmlns:xlink="http://www.w3.org/1999/xlink" width="200" height="200"><path d="M1024 802.915097H0V141.493677c0-12.833032 5.053935-25.137548 14.055226-34.221419a47.797677 47.797677 0 0 1 33.940645-14.170839h928.008258c12.717419 0 24.939355 5.086968 33.940645 14.170839 9.00129 9.083871 14.055226 21.388387 14.055226 34.221419v661.42142z" fill="#00B696" p-id="7009"></path><path d="M949.892129 744.728774H74.107871a15.855484 15.855484 0 0 1-11.264-4.69058 16.103226 16.103226 0 0 1-4.657548-11.346581V167.308387c0-4.244645 1.668129-8.324129 4.657548-11.330064a15.855484 15.855484 0 0 1 11.264-4.707097h875.784258c4.228129 0 8.274581 1.684645 11.264 4.707097 2.972903 3.005935 4.657548 7.085419 4.657548 11.330064v561.383226a16.103226 16.103226 0 0 1-4.657548 11.346581 15.855484 15.855484 0 0 1-11.264 4.69058z" fill="#FFFFFF" p-id="7010"></path><path d="M976.004129 884.356129H47.995871a47.566452 47.566452 0 0 1-33.940645-14.319484A49.333677 49.333677 0 0 1 0 835.468387v-32.569806h1024v32.569806c0 12.965161-5.053935 25.401806-14.055226 34.568258a47.566452 47.566452 0 0 1-33.940645 14.319484" fill="#407FF3" p-id="7011"></path><path d="M561.87871 849.457548h-99.75742a10.372129 10.372129 0 0 1-5.863225-1.701161c-1.569032-1.090065-2.444387-2.576516-2.444388-4.129032 0-1.536 0.875355-3.005935 2.444388-4.096a10.405161 10.405161 0 0 1 5.863225-1.717678h99.75742a10.405161 10.405161 0 0 1 5.863225 1.717678c1.569032 1.090065 2.444387 2.56 2.444388 4.112516 0 1.536-0.875355 3.022452-2.444388 4.112516a10.372129 10.372129 0 0 1-5.863225 1.701161" fill="#FFFFFF" p-id="7012"></path><path d="M801.246968 942.542452H222.753032l-48.21058 46.558967h674.915096l-48.227096-46.558967z" fill="#407FF3" p-id="7013"></path><path d="M319.174194 961.948903h385.651612v-77.576258h-385.651612v77.576258zM174.542452 1024h674.915096v-34.964645H174.542452V1024z" fill="#BFD6FF" p-id="7014"></path><path d="M861.084903 128H162.915097V16.004129c0-4.244645 1.651613-8.324129 4.624516-11.313548a15.805935 15.805935 0 0 1 11.230968-4.690581h666.458838c4.195097 0 8.241548 1.684645 11.214452 4.690581 2.972903 2.989419 4.641032 7.068903 4.641032 11.313548V128z" fill="#96BBFF" p-id="7015"></path><path d="M576.016516 85.322323a21.140645 21.140645 0 0 1-19.75329-13.212904 21.371871 21.371871 0 0 1-1.602065-8.225032c0-5.565935 2.147097-11.148387 6.193549-15.013161 7.911226-8.142452 22.214194-7.927742 30.108903 0 4.062968 4.079484 6.408258 9.447226 6.408258 15.029677 0 5.780645-2.34529 11.148387-6.408258 15.194839a20.69471 20.69471 0 0 1-14.947097 6.226581z m85.404903-21.223226a21.140645 21.140645 0 0 1 21.140646-21.437936c11.957677 0 21.355355 9.43071 21.355354 21.437936a21.140645 21.140645 0 0 1-21.355354 21.223226c-11.742968 0-21.140645-9.43071-21.140646-21.223226z m128.099097 21.223226a20.77729 20.77729 0 0 1-15.14529-6.210065 20.909419 20.909419 0 0 1-4.773161-23.33729c1.106581-2.593032 2.725161-4.954839 4.773161-6.903742 7.89471-8.142452 22.197677-8.142452 30.092387 0 4.062968 4.079484 6.193548 9.447226 6.193548 15.227871 0 5.598968-2.130581 11.148387-6.193548 15.013161a20.711226 20.711226 0 0 1-14.947097 6.210065" fill="#FFFFFF" p-id="7016"></path><path d="M162.915097 744.712258h698.169806V128H162.915097v616.712258z" fill="#E9F0FF" p-id="7017"></path><path d="M320 170.661161l26.359742 56.187871 58.962581 9.001291-42.661162 43.734709 10.074839 61.737291-52.736-29.150968-52.736 29.150968 10.074839-61.737291-42.677678-43.734709 58.962581-9.001291 26.376258-56.187871zM533.338839 170.661161l26.359742 56.187871 58.96258 9.001291-42.661161 43.734709 10.074839 61.737291-52.736-29.150968-52.736 29.150968 10.074838-61.737291-42.677677-43.734709 58.962581-9.001291 26.376258-56.187871z" fill="#69CEBC" p-id="7018"></path><path d="M555.30529 420.219871h-92.638967a7.399226 7.399226 0 0 1-7.399226-7.432258 7.46529 7.46529 0 0 1 7.399226-7.448774h92.638967a7.399226 7.399226 0 0 1 7.415742 7.432258 7.46529 7.46529 0 0 1-7.432258 7.448774z m-132.162064 0h-138.405161a7.399226 7.399226 0 0 1-7.399226-7.432258 7.448774 7.448774 0 0 1 7.399226-7.448774h138.405161a7.399226 7.399226 0 0 1 7.399226 7.432258 7.448774 7.448774 0 0 1-7.399226 7.448774z m316.118709 49.614452h-78.649806a7.399226 7.399226 0 0 1-7.399226-7.432258 7.46529 7.46529 0 0 1 7.399226-7.448775h78.649806a7.399226 7.399226 0 0 1 7.399226 7.432258 7.46529 7.46529 0 0 1-7.399226 7.448775z m-118.156387 0h-95.793548a7.399226 7.399226 0 0 1-7.399226-7.432258 7.46529 7.46529 0 0 1 7.399226-7.448775h95.793548a7.38271 7.38271 0 0 1 7.399226 7.432258 7.448774 7.448774 0 0 1-7.415742 7.448775z m-135.316645 0h-111.731613a7.399226 7.399226 0 0 1-7.415742-7.432258 7.448774 7.448774 0 0 1 7.415742-7.448775h111.731613a7.38271 7.38271 0 0 1 7.399226 7.432258 7.448774 7.448774 0 0 1-7.399226 7.448775z m-171.008 0H284.738065a7.38271 7.38271 0 0 1-7.399226-7.432258 7.448774 7.448774 0 0 1 7.399226-7.448775h30.026322a7.38271 7.38271 0 0 1 7.399226 7.432258 7.448774 7.448774 0 0 1-7.399226 7.448775h0.016516z m355.724387 49.614451h-95.793548a7.399226 7.399226 0 0 1-7.399226-7.432258 7.46529 7.46529 0 0 1 7.399226-7.448774h95.793548a7.399226 7.399226 0 0 1 7.399226 7.432258 7.46529 7.46529 0 0 1-7.399226 7.432258z m-135.316645 0h-161.147871A7.399226 7.399226 0 0 1 366.658065 512a7.448774 7.448774 0 0 1 7.399225-7.448774h161.147871a7.399226 7.399226 0 0 1 7.432258 7.432258 7.46529 7.46529 0 0 1-7.432258 7.432258z m-220.407742 0H284.738065a7.399226 7.399226 0 0 1-7.399226-7.432258 7.448774 7.448774 0 0 1 7.399226-7.448774h30.026322a7.399226 7.399226 0 0 1 7.399226 7.432258 7.448774 7.448774 0 0 1-7.399226 7.432258h0.016516z m424.464516 49.614452h-98.38658a7.399226 7.399226 0 0 1-7.415742-7.432258 7.448774 7.448774 0 0 1 7.415742-7.448774h98.403096a7.399226 7.399226 0 0 1 7.399226 7.432258 7.46529 7.46529 0 0 1-7.399226 7.432258z m-137.909677 0h-66.147097a7.399226 7.399226 0 0 1-7.399226-7.432258 7.448774 7.448774 0 0 1 7.399226-7.448774h66.147097a7.399226 7.399226 0 0 1 7.415742 7.432258 7.46529 7.46529 0 0 1-7.415742 7.432258z m-105.653677 0h-121.641291a7.399226 7.399226 0 0 1-7.399226-7.432258 7.448774 7.448774 0 0 1 7.399226-7.448774h121.641291a7.399226 7.399226 0 0 1 7.399225 7.432258 7.46529 7.46529 0 0 1-7.399225 7.432258z m-180.901162 0H284.738065a7.399226 7.399226 0 0 1-7.399226-7.432258 7.448774 7.448774 0 0 1 7.399226-7.448774h30.026322a7.399226 7.399226 0 0 1 7.399226 7.432258 7.448774 7.448774 0 0 1-7.399226 7.432258h0.016516z m391.465291 49.614451h-95.033807a7.399226 7.399226 0 0 1-7.399226-7.432258 7.448774 7.448774 0 0 1 7.399226-7.46529h95.01729a7.399226 7.399226 0 0 1 7.432258 7.448774 7.46529 7.46529 0 0 1-7.432258 7.432258h0.016517z m-134.556904 0h-85.900387a7.399226 7.399226 0 0 1-7.415742-7.432258 7.46529 7.46529 0 0 1 7.415742-7.46529h85.883871a7.399226 7.399226 0 0 1 7.432258 7.448774 7.46529 7.46529 0 0 1-7.432258 7.432258z m-125.423484 0h-72.208516a7.399226 7.399226 0 0 1-7.415742-7.432258 7.448774 7.448774 0 0 1 7.415742-7.46529h72.208516a7.399226 7.399226 0 0 1 7.399226 7.448774 7.46529 7.46529 0 0 1-7.399226 7.432258z m-131.468387 0h-30.059354a7.399226 7.399226 0 0 1-7.399226-7.432258 7.448774 7.448774 0 0 1 7.399226-7.46529h30.026322a7.399226 7.399226 0 0 1 7.399226 7.448774 7.448774 7.448774 0 0 1-7.399226 7.432258" fill="#407FF3" p-id="7019"></path><path d="M373.330581 341.322323l-53.347097-31.991742-52.257032 31.364129 52.273548-63.372387h10.669419l10.66942-21.322323 64-21.338839-42.677678 42.661162 10.66942 64zM586.652903 341.322323l-53.314064-31.991742-52.273549 31.364129 52.273549-63.372387h10.652903l10.669419-21.322323 64-21.338839-42.661161 42.661162 10.669419 64z" fill="#00B696" p-id="7020"></path></svg>